<?xml version="1.0" encoding="UTF-8"?>
<!DOCTYPE svg PUBLIC "-//W3C//DTD SVG 1.1//EN" "http://www.w3.org/Graphics/SVG/1.1/DTD/svg11.dtd">
<!-- Creator: CorelDRAW X7 -->
<svg xmlns="http://www.w3.org/2000/svg" xml:space="preserve" width="210mm" height="297mm" version="1.1" style="shape-rendering:geometricPrecision; text-rendering:geometricPrecision; image-rendering:optimizeQuality; fill-rule:evenodd; clip-rule:evenodd"
viewBox="0 0 21000 29700"
 xmlns:xlink="http://www.w3.org/1999/xlink">
 <defs>
  <style type="text/css">
   <![CDATA[
    .fil0 {fill:black}
   ]]>
  </style>
 </defs>
 <g id="Слой_x0020_1">
  <metadata id="CorelCorpID_0Corel-Layer"/>
  <path class="fil0" d="M2590 4152c24,34 59,26 56,74 -81,64 -313,-38 -66,-136 129,-50 187,-98 297,-153 34,-17 140,11 193,11 243,-5 105,-52 384,37 65,21 100,48 148,78 73,44 115,57 122,105 -48,38 -120,58 -177,5 -34,-31 -3,-25 -28,-55 -47,-4 -61,18 -97,35 -147,70 -471,90 -613,63 -81,-15 -120,-57 -219,-64zm637 -835c25,13 11,24 37,35 16,6 51,4 71,8 -44,30 -119,30 -108,-43zm-330 52c19,-8 50,-10 64,-22 17,-15 13,-38 29,-57 18,65 -29,97 -93,79zm47 -334c8,-19 -1,-13 32,-24 75,-25 239,-36 269,39 -72,4 -248,21 -301,-15zm43 -100l-18 1 -11 8c-11,-18 1,2 -7,-15l-8 -14c-31,51 -46,32 -103,58 -43,19 -60,49 -87,75 -61,57 -62,171 -19,253 25,48 62,53 79,82 28,47 16,65 60,109 71,70 128,75 253,77 114,2 177,-34 232,-91 26,-26 49,-58 59,-102 13,-53 52,-33 82,-88 55,-105 -41,-278 -145,-320 -79,-31 -103,-22 -114,-54 -30,9 -1,10 -35,16l-2 -24 -14 25c-30,1 -7,3 -15,-11l-18 -34c-15,12 -4,29 -16,46 -31,-17 -9,-17 -26,-49l-14 34c-5,10 -3,8 -9,13l-15 -41c-19,15 -8,8 -20,32 -14,-17 5,7 -8,-12l-13 -16 -6 47c-24,-14 -3,3 -22,-23 -15,23 -3,29 -20,18zm683 -633l8 -61c27,9 19,4 33,28l-41 33zm-1176 -33c14,-32 28,-22 63,-8 1,24 4,37 -21,31 -1,0 -21,-8 -21,-8l-21 -15zm-421 -14c58,-6 57,31 85,63 83,95 212,76 308,-11 -18,73 -125,107 -216,100 -80,-6 -104,-68 -135,-109 -13,-17 -30,-31 -42,-43zm1670 62c124,32 172,140 320,-38 33,-39 52,-84 93,-52 -12,12 -50,28 -85,75 -22,31 -40,74 -80,89 -80,29 -224,-15 -248,-74zm-1492 -208c28,-10 49,-13 82,-9 48,5 59,9 71,29 -29,22 -21,0 -50,15 -17,10 -13,24 -39,31 -38,11 -70,-25 -64,-66zm1728 13l-33 26c-21,20 -11,19 -46,14 -11,-15 -15,-21 -12,-48l-61 -2c11,-67 138,-52 152,10zm-1967 20c-10,21 5,6 -16,22 -4,-7 -9,11 -4,-11 7,-39 -1,-6 11,-20 18,-41 45,-46 44,-72 -2,-33 -15,22 -4,-25 6,-22 56,-78 78,-89 -8,-18 -12,-10 -25,-22l14 -8c52,-18 198,-75 230,0l-77 6 60 48c-40,1 -78,-17 -133,1 -23,7 -27,12 -36,28l85 0c-6,7 1,4 -13,9 -56,20 -36,-2 -109,52 -29,21 -85,60 -105,81zm2128 -198c-4,7 -12,5 -28,19 47,13 63,55 73,110l-27 4c9,43 27,53 34,107 -38,-23 -67,-95 -101,-135 -68,-81 -71,-45 -174,-51 49,-22 43,-40 148,-31 -14,-22 -49,-38 -77,-54 -46,-26 -54,-19 -109,-25 94,-38 188,17 261,56zm111 -36c2,3 19,-15 1,15 -27,-9 2,2 -12,-13l-33 -23c12,55 61,101 73,164 -18,-9 -75,-63 -72,-81 6,-32 -72,-76 -97,-86l-18 -7c-8,-37 -3,1 9,-14l14 -6c-50,-34 -128,-37 -197,-38 11,-9 14,-11 31,-18l40 -16c-50,-29 -131,16 -181,18 21,-12 137,-120 259,-76 92,33 152,88 183,181zm-1844 -143c21,13 13,1 19,27 -8,-2 -9,1 -17,-6 -12,-11 -2,0 -11,-15l-40 -39c-3,25 6,25 15,45 -24,-16 -21,-24 -52,-12l21 29 -57 -18c8,22 10,17 20,36 -13,-2 -32,-8 -47,-4 -29,8 -9,0 -15,18l-156 42c8,24 -10,6 26,20 -21,15 -43,23 -66,39 -22,16 -40,33 -64,49 25,13 15,-3 39,3 -23,14 -32,17 -46,39 -35,56 -16,52 -24,75 -2,5 -11,18 -15,26 -10,18 -14,40 -24,57 -24,-56 11,-70 27,-111l-24 15c-16,15 17,7 -12,11 -18,-27 -2,-10 0,-13 14,-28 33,-49 51,-69l-30 -7c28,-25 38,-42 63,-78 22,-32 56,-38 74,-63 -10,-11 7,0 -18,-13 -3,-24 -3,1 8,-10l60 -35c-6,-22 -1,1 -12,-26 79,-25 28,-30 72,-63 30,-21 78,-10 124,-14l-23 -26c84,-4 113,28 134,91zm1332 -19c13,-14 -1,-8 28,-13 -1,31 9,11 -12,28 -17,41 -42,34 -71,62 -18,17 -49,58 -65,67 5,-36 21,-56 3,-79 -8,21 -9,29 -27,44l-9 -55 -36 62c-25,-20 -12,-25 -31,-47 -20,23 -11,41 -35,58l-23 -44 -82 150c-11,17 -9,-8 -39,23 23,128 -32,88 62,209 46,60 85,150 170,203 21,13 48,16 65,31 -24,23 -22,1 -25,34 16,6 36,10 59,11 47,80 77,260 233,363 31,21 50,22 58,64 10,49 25,175 23,225 -32,-15 -35,-35 -59,-51 7,31 26,57 40,80 51,85 -57,34 74,277 36,68 56,99 70,185 8,54 23,185 11,236 -25,110 -140,227 -272,226 -120,-1 -186,-76 -245,-133 -29,-28 -36,-44 -64,-64 -45,10 -1,25 -45,19 -8,-1 -41,-14 -54,-18 -36,-10 -73,-19 -111,-29 -169,-45 -113,-39 -183,-103 -49,6 -77,27 -111,48 -93,58 -176,82 -217,107 -29,18 -76,49 -113,53 -8,11 14,5 -17,10 5,-33 -2,-3 12,-18 6,-23 18,-31 15,-58 -13,7 -92,94 -105,106 -31,30 -26,21 -66,40 -31,15 -42,30 -68,44 -114,64 -278,12 -334,-59 -77,-99 -110,-401 -3,-524 22,-26 86,-92 99,-123 -19,-21 -19,-5 -39,-28 13,-42 13,-1 38,-88 17,-56 13,-58 -31,-80 4,-9 85,-140 89,-176l-37 -14c32,-89 -11,-38 22,-80 32,-40 115,-77 167,-170 64,-115 5,-98 165,-289 6,-23 -6,-9 14,-19 33,-19 85,-87 113,-117 45,-47 61,-77 96,-142 60,-111 8,-95 -11,-147 -15,-42 11,-3 -24,-37 -1,-1 -3,-3 -4,-4l-63 -103 -19 47 -15 -90c-3,1 -5,1 -5,3 -1,2 -3,3 -4,4l-21 27 -18 -111 -19 52c-23,-15 -26,-34 -47,-50 -8,16 2,28 -17,50 -15,-40 -39,-95 -73,-114 63,-14 43,15 85,29l-9 -64 -8 -19c37,-4 4,-2 18,8 7,19 13,36 36,41l10 -70 25 40c7,15 12,24 24,38l18 -40c20,26 10,42 31,61 15,-22 9,-20 11,-48 6,-73 5,-15 20,-49 -7,-50 -42,-95 -52,-141 44,14 50,69 85,100l-12 -141 44 81c19,-55 -7,-118 -11,-174l18 51 18 0 0 -90c-4,-6 -5,-3 -8,-16 -2,-8 0,-14 3,-23l7 19 10 -12c-1,-29 2,-60 0,-89 -2,-30 -12,-50 -16,-82 28,20 31,51 52,77 8,-15 10,-27 8,-58 -2,-21 -7,-36 -9,-59l29 39 7 -101 28 28 14 -60c21,2 11,0 27,10l18 -4c4,-11 -9,-5 9,-12l23 25 19 -36c20,22 7,21 30,37 28,-11 15,-9 35,-31l21 31 12 -10c1,-1 3,-3 4,-4 0,-1 9,-11 10,-12l8 37c31,-9 46,-37 64,-49l14 70c24,-12 16,-22 39,-30l2 69c23,-13 15,-14 34,-28l-6 61c1,1 3,-1 4,0 0,1 3,0 4,0l11 0c1,0 3,0 4,0l-5 49c3,2 6,1 7,3 7,19 -2,-4 25,11 -1,35 -26,83 -25,92 3,22 1,2 10,16 9,15 16,-31 5,21 -3,16 -12,18 -14,44l35 -14c-7,38 -24,60 -20,104 9,-14 12,-14 31,-17 -9,42 -41,76 -49,127 17,-16 18,-30 42,-44l-23 73c34,-18 43,-41 79,-56 -5,37 -40,68 -50,114l27 -23c2,-1 4,-2 6,-3 -7,61 -39,120 2,176l19 -101 14 59 27 -80c3,29 -9,37 5,59 7,-8 43,-63 44,-71l-4 43 65 -45 -10 52c31,-8 39,-21 59,-32 -6,29 -19,40 -17,72 29,-5 36,-24 64,-36 -1,23 -8,21 -16,49l48 -13zm-1708 1646c63,28 17,178 10,236 -17,140 -23,364 86,463 75,67 239,216 353,217 29,1 38,-6 64,-9 23,-2 47,0 70,0 60,-2 90,-31 109,-36 27,-8 77,18 109,21 160,15 351,-7 504,-48 28,-8 83,-29 108,-31 51,-5 133,65 227,49 22,-3 32,-12 59,-14 22,-2 45,1 69,0 52,-4 67,-8 94,-45 58,-79 221,-110 266,-302 75,-318 -79,-310 -39,-489 14,-62 49,-162 80,-210 18,19 28,63 34,89 9,34 17,67 23,102 26,145 42,278 71,429 14,69 22,146 39,213 28,107 129,272 256,204 29,-16 50,-34 81,-46 84,-32 155,-24 185,-194 31,-177 290,-358 396,-609 80,-191 75,-334 18,-524 -35,-114 54,-74 -73,-292 -69,-119 -169,-272 -230,-387l-45 -82c-181,-348 -182,-242 -302,-450 -29,-51 -57,-115 -78,-174 -51,-146 -91,-161 -262,-237 -79,-35 -112,-37 -160,-92 -61,-70 -71,-112 -113,-140 -77,-52 -121,-29 -195,-58 -119,-46 -223,-111 -344,-155 -139,-51 -265,-67 -438,-66 -233,1 -401,59 -601,142 -57,24 -120,59 -178,75 -83,22 -109,29 -152,94 -120,181 -169,3 -453,305 -202,215 -107,310 -283,468 -183,164 -239,345 -437,568 -198,224 -191,219 -262,490 -44,171 -74,239 -13,420 59,179 181,326 258,494 28,61 41,126 67,185 47,103 166,177 301,197 151,22 284,-33 386,-101 86,-57 154,-173 203,-295 23,-59 45,-124 64,-190 16,-57 23,-155 68,-185z"/>
 </g>
</svg>
